<svg width="67" height="21" viewBox="0 0 67 21" fill="none" xmlns="http://www.w3.org/2000/svg">
<path d="M55.9329 6.51013C57.2939 6.51013 58.3972 5.41237 58.3972 4.05822C58.3972 2.70408 57.2939 1.60632 55.9329 1.60632C54.5719 1.60632 53.4686 2.70408 53.4686 4.05822C53.4686 5.41237 54.5719 6.51013 55.9329 6.51013Z" fill="#FF4500"/>
<path d="M21.01 14.4922C21.9633 14.5593 22.7908 13.8434 22.8627 12.8904C22.8672 12.8367 22.8672 12.774 22.8672 12.7159C22.8537 12.3848 22.8133 12.0492 22.7458 11.7226C22.1612 8.61744 19.4945 6.33109 16.3242 6.20581C12.7132 6.20581 9.6958 9.50782 9.6958 13.5615C9.6958 17.6152 12.6638 20.9217 16.3197 20.9217C18.2579 20.9978 20.1376 20.2192 21.4417 18.7919C21.9768 18.2103 21.9319 17.311 21.3473 16.7785C21.3023 16.7382 21.2618 16.7025 21.2169 16.6711C20.6323 16.3087 19.8723 16.3848 19.3776 16.8591C18.5637 17.6644 17.4709 18.1253 16.3197 18.1611C14.3321 18.0045 12.7402 16.4564 12.5423 14.4743H20.956L21.01 14.4922ZM16.3062 8.97539C18.0555 9.09172 19.526 10.3356 19.9173 12.0403H12.7042C13.091 10.3311 14.5525 9.08724 16.3062 8.97539Z" fill="black"/>
<path d="M9.83965 7.63311C9.83965 6.94407 9.327 6.35794 8.63897 6.27293C6.78175 5.96421 4.89305 6.64877 3.67439 8.08054V7.90157C3.67439 7.13646 3.05382 6.51902 2.28486 6.51902C1.51589 6.51902 0.895312 7.13646 0.895312 7.90157V19.2215C0.877324 19.9642 1.44843 20.5951 2.19492 20.6577C2.95489 20.7114 3.62043 20.1387 3.6699 19.3825C3.67439 19.3289 3.67439 19.2752 3.6699 19.2215V13.4139C3.54848 11.0962 5.33375 9.12304 7.66315 8.99776C7.87 8.98434 8.08136 8.98881 8.28822 9.01118H8.56702C9.28652 8.94854 9.83965 8.35347 9.83965 7.63311Z" fill="black"/>
<path d="M57.3179 9.11857C57.3179 8.35347 56.6973 7.73602 55.9284 7.73602C55.1594 7.73602 54.5388 8.35347 54.5388 9.11857V19.217C54.5388 19.9821 55.1594 20.5996 55.9284 20.5996C56.6973 20.5996 57.3179 19.9821 57.3179 19.217V9.11857Z" fill="black"/>
<path d="M36.812 1.44521C36.812 0.684588 36.1915 0.0671384 35.427 0.0671384C34.6625 0.0671384 34.042 0.684588 34.042 1.44521V7.61971C33.1066 6.68012 31.8205 6.17005 30.4939 6.20584C26.8829 6.20584 23.8655 9.50786 23.8655 13.5615C23.8655 17.6152 26.8379 20.9217 30.4939 20.9217C31.843 20.962 33.1471 20.4475 34.1049 19.4944C34.3208 20.2237 35.0897 20.6398 35.8227 20.4251C36.3759 20.264 36.7716 19.7808 36.8076 19.2036L36.812 1.44521ZM30.4849 18.1969C28.3579 18.1969 26.6266 16.1387 26.6266 13.5929C26.6266 11.047 28.3444 8.98884 30.4849 8.98884C32.6254 8.98884 34.3433 11.047 34.3433 13.5929C34.3433 16.1387 32.6254 18.1745 30.4939 18.1745L30.4849 18.1969Z" fill="black"/>
<path d="M51.3011 1.44521C51.3011 0.684588 50.6805 0.0671384 49.916 0.0671384C49.1515 0.0671384 48.531 0.684588 48.531 1.44521V7.61971C47.5956 6.68012 46.3095 6.17005 44.9829 6.20584C41.3719 6.20584 38.3545 9.50786 38.3545 13.5615C38.3545 17.6152 41.3269 20.9217 44.9829 20.9217C46.332 20.962 47.6361 20.4475 48.5939 19.4944C48.8098 20.2237 49.5788 20.6398 50.3117 20.4251C50.8649 20.264 51.2606 19.7808 51.2966 19.2036L51.3011 1.44521ZM44.9784 18.1969C42.8514 18.1969 41.1201 16.1387 41.1201 13.5929C41.1201 11.047 42.8379 8.98884 44.9784 8.98884C47.1189 8.98884 48.8368 11.047 48.8368 13.5929C48.8368 16.1387 47.1189 18.1745 44.9874 18.1745L44.9784 18.1969Z" fill="black"/>
<path d="M64.5175 19.2126V8.97543H65.7181C66.3837 9.0157 66.9503 8.51011 66.9908 7.85239C66.9908 7.83002 66.9953 7.80317 66.9953 7.77633C67.0537 7.11861 66.5636 6.53695 65.907 6.47879C65.871 6.47431 65.8306 6.47431 65.7946 6.47431H64.522V4.57275C64.531 3.83449 63.9643 3.21257 63.2224 3.14545C62.4624 3.09176 61.8013 3.66447 61.7474 4.42062C61.7429 4.45194 61.7429 4.48774 61.7429 4.51906V6.50563H60.5377C59.8722 6.46537 59.3056 6.97096 59.2651 7.62868C59.2651 7.65105 59.2606 7.67789 59.2606 7.70474C59.2021 8.36246 59.6923 8.94411 60.3488 9.00228C60.3848 9.00675 60.4253 9.00675 60.4613 9.00675H61.6619V19.217C61.6619 19.9777 62.2825 20.5951 63.047 20.5951C63.8115 20.6443 64.4635 20.0627 64.513 19.3021C64.5175 19.2752 64.5175 19.2439 64.5175 19.2126Z" fill="black"/>
</svg>
